HIERARCHY
ROOT Hips
{
	OFFSET	0.000000	0.000000	0.000000
	CHANNELS 6 Xposition Yposition Zposition Zrotation Xrotation Yrotation
	JOINT LeftUpLeg
	{
		OFFSET	12.811937	-7.635976	0.557276
		CHANNELS 3 Zrotation Xrotation Yrotation
		JOINT LeftLeg
		{
			OFFSET	-0.429270	-42.206159	-1.204951
			CHANNELS 3 Zrotation Xrotation Yrotation
			JOINT LeftFoot
			{
				OFFSET	-2.112259	-42.464481	-3.973220
				CHANNELS 3 Zrotation Xrotation Yrotation
				JOINT LeftFootHeel
				{
					OFFSET	0.387196	-5.329707	-3.419729
					CHANNELS 3 Zrotation Xrotation Yrotation
					End Site
					{
						OFFSET	0.327567	-0.000003	16.505428
					}
				}
			}
		}
	}
	JOINT RightUpLeg
	{
		OFFSET	-12.811937	-7.635976	0.557276
		CHANNELS 3 Zrotation Xrotation Yrotation
		JOINT RightLeg
		{
			OFFSET	0.429270	-42.206159	-1.204951
			CHANNELS 3 Zrotation Xrotation Yrotation
			JOINT RightFoot
			{
				OFFSET	2.112259	-42.464481	-3.973220
				CHANNELS 3 Zrotation Xrotation Yrotation
				JOINT RightFootHeel
				{
					OFFSET	-0.387198	-5.329707	-3.419729
					CHANNELS 3 Zrotation Xrotation Yrotation
					End Site
					{
						OFFSET	-0.327566	-0.000003	16.505428
					}
				}
			}
		}
	}
	JOINT Spine
	{
		OFFSET	0.000000	13.731315	-1.007646
		CHANNELS 3 Zrotation Xrotation Yrotation
		JOINT Spine1
		{
			OFFSET	0.000000	12.091746	-0.604589
			CHANNELS 3 Zrotation Xrotation Yrotation
			JOINT LeftShoulder
			{
				OFFSET	5.746115	20.990027	-0.833816
				CHANNELS 3 Zrotation Xrotation Yrotation
				JOINT LeftArm
				{
					OFFSET	10.881538	-1.359258	0.219250
					CHANNELS 3 Zrotation Xrotation Yrotation
					JOINT LeftForeArm
					{
						OFFSET	4.390314	-31.537147	0.202818
						CHANNELS 3 Zrotation Xrotation Yrotation
						JOINT LeftHand
						{
							OFFSET	3.168650	-24.865023	5.373370
							CHANNELS 3 Zrotation Xrotation Yrotation
							End Site
							{
								OFFSET	1.457528	-10.806075	2.170267
							}
						}
					}
				}
			}
			JOINT RightShoulder
			{
				OFFSET	-5.746115	20.990027	-0.833816
				CHANNELS 3 Zrotation Xrotation Yrotation
				JOINT RightArm
				{
					OFFSET	-10.881538	-1.359258	0.219250
					CHANNELS 3 Zrotation Xrotation Yrotation
					JOINT RightForeArm
					{
						OFFSET	-4.390314	-31.537147	0.202818
						CHANNELS 3 Zrotation Xrotation Yrotation
						JOINT RightHand
						{
							OFFSET	-3.168650	-24.865023	5.373370
							CHANNELS 3 Zrotation Xrotation Yrotation
							End Site
							{
								OFFSET	-1.457528	-10.806075	2.170267
							}
						}
					}
				}
			}
			JOINT Neck
			{
				OFFSET	0.000000	27.075639	0.680489
				CHANNELS 3 Zrotation Xrotation Yrotation
				JOINT Head
				{
					OFFSET	0.000000	12.391287	1.239129
					CHANNELS 3 Zrotation Xrotation Yrotation
					End Site
					{
						OFFSET	0.000000	13.818691	-0.105853
					}
				}
			}
		}
	}
}
MOTION
Frames:     11
Frame Time: 0.016667
0.000000	100.371217	0.000000	0.174275	1.805341	2.476778	1.898172	-2.005170	-0.510017	-1.892207	-0.220751	3.275465	0.834990	0.861967	-4.155575	0.	0.	0.	-1.520587	-0.011402	-0.750352	-0.369913	-2.647560	-0.060341	2.158880	1.150688	-2.923530	0.	0.	0.	-0.159624	2.778556	-0.007960	-0.040487	-3.671002	-5.856003	-0.399043	3.864914	5.621200	1.509855	-5.302280	-8.447310	-2.248279	-0.715849	-1.447607	3.796066	2.946648	-31.594984	-1.158198	4.592263	5.625227	-0.814980	-3.775826	10.247631	-2.167433	0.242375	3.899084	0.916350	-3.091996	13.827489	0.088363	0.588407	5.629634	0.748369	-3.417843	-3.419590	
0.000000	100.371217	0.000000	0.174275	1.805341	2.476778	1.897780	-2.005443	-0.513304	-1.891805	-0.220584	3.278744	0.834990	0.861967	-4.155575	0.	0.	0.	-1.520587	-0.011402	-0.750352	-0.369913	-2.647560	-0.060341	2.158880	1.150688	-2.923530	0.	0.	0.	-0.161709	2.794011	-0.009141	-0.039283	-3.696738	-5.844515	-0.398446	3.875312	5.610974	1.509855	-5.302280	-8.447310	-2.248279	-0.715849	-1.447607	3.796066	2.946648	-31.594984	-1.157482	4.602796	5.615130	-0.814980	-3.775826	10.247631	-2.167433	0.242375	3.899084	0.916350	-3.091996	13.827489	0.088376	0.598717	5.619343	0.748080	-3.404530	-3.417623	
0.002321	100.370965	0.003715	0.174275	1.805341	2.476778	1.897780	-2.005443	-0.513304	-1.891805	-0.220584	3.278744	0.834990	0.861967	-4.155575	0.	0.	0.	-1.523433	-0.005797	-0.749659	-0.366797	-2.653702	-0.057969	2.158711	1.151149	-2.926641	0.	0.	0.	-0.168291	2.842880	-0.012880	-0.035244	-3.778070	-5.802856	-0.396396	3.908149	5.573311	1.509855	-5.302280	-8.447310	-2.248279	-0.715849	-1.447607	3.837137	2.942025	-31.662798	-1.154987	4.636128	5.577871	-0.814980	-3.775826	10.247631	-2.167433	0.242375	3.899084	0.916350	-3.091996	13.827489	0.088276	0.631236	5.581488	0.747941	-3.398161	-3.416683	
0.002448	100.371091	0.002387	0.174275	1.805341	2.476778	1.897780	-2.005443	-0.513304	-1.891805	-0.220584	3.278744	0.834990	0.861967	-4.155575	0.	0.	0.	-1.523433	-0.005797	-0.749659	-0.365797	-2.656135	-0.044879	2.157974	1.153088	-2.939770	0.	0.	0.	-0.172902	2.877125	-0.015496	-0.032271	-3.833612	-5.775492	-0.395050	3.929691	5.548749	1.509855	-5.302280	-8.447310	-2.248279	-0.715849	-1.447607	3.850740	2.941834	-31.684633	-1.153351	4.657993	5.553575	-0.814980	-3.775826	10.247631	-2.167433	0.242375	3.899084	0.916350	-3.091996	13.827489	0.077681	0.668595	5.564988	0.756412	-3.415236	-3.424541	
0.001990	100.371246	0.000500	0.174275	1.805341	2.476778	1.897780	-2.005443	-0.513304	-1.891805	-0.220584	3.278744	0.834990	0.861967	-4.155575	0.	0.	0.	-1.522438	-0.005659	-0.746623	-0.365416	-2.660003	-0.027832	2.156864	1.156067	-2.959918	0.	0.	0.	-0.172902	2.877125	-0.015496	-0.034154	-3.854537	-5.753440	-0.393765	3.950852	5.526663	1.509855	-5.302280	-8.447310	-2.248279	-0.715849	-1.447607	3.870181	2.943012	-31.715191	-1.147314	4.673948	5.538350	-0.819363	-3.769827	10.240731	-2.167433	0.242375	3.899084	0.916350	-3.091996	13.827489	0.063889	0.710586	5.553520	0.767523	-3.437627	-3.434835	
0.001990	100.371246	0.000500	0.174275	1.805341	2.476778	1.897780	-2.005443	-0.513304	-1.891805	-0.220584	3.278744	0.834990	0.861967	-4.155575	0.	0.	0.	-1.522438	-0.005659	-0.746623	-0.365416	-2.660003	-0.027832	2.156864	1.156067	-2.959918	0.	0.	0.	-0.177193	2.909009	-0.017931	-0.030652	-3.897034	-5.740069	-0.393121	3.961582	5.515912	1.509855	-5.302280	-8.447310	-2.248279	-0.715849	-1.447607	3.870181	2.943012	-31.715191	-1.146546	4.684819	5.527732	-0.819363	-3.769827	10.240731	-2.168270	0.242529	3.902384	0.916997	-3.092257	13.824190	0.057647	0.730767	5.547593	0.772569	-3.447787	-3.439507	
-0.001938	100.371430	-0.000676	0.174275	1.805341	2.476778	1.897780	-2.005443	-0.513304	-1.891805	-0.220584	3.278744	0.834990	0.861967	-4.155575	0.	0.	0.	-1.516246	-0.004824	-0.727642	-0.370882	-2.664675	-0.025945	2.155690	1.159161	-2.980872	0.	0.	0.	-0.183260	2.954098	-0.021380	-0.027232	-3.974263	-5.703669	-0.390210	3.991626	5.484912	1.508969	-5.299798	-8.449159	-2.248279	-0.715849	-1.447607	3.870181	2.943012	-31.715191	-1.130846	4.701380	5.515046	-0.832399	-3.751968	10.220222	-2.175220	0.243784	3.929784	0.918548	-3.090628	13.815450	0.038114	0.792835	5.530007	0.816412	-3.430852	-3.439944	
-0.003820	100.371604	-0.002417	0.174275	1.805341	2.476778	1.897780	-2.005443	-0.513304	-1.891653	-0.220522	3.281938	0.834883	0.861867	-4.158769	0.	0.	0.	-1.513103	-0.004399	-0.718014	-0.372800	-2.669144	-0.013715	2.154467	1.162403	-3.002808	0.	0.	0.	-0.187491	2.985557	-0.023780	-0.024837	-4.027081	-5.681450	-0.382610	3.997038	5.476584	1.503088	-5.283404	-8.461415	-2.248279	-0.715849	-1.447607	3.870181	2.943012	-31.715191	-1.121851	4.714037	5.506676	-0.841679	-3.740289	10.218391	-2.180288	0.243409	3.946481	0.919508	-3.088513	13.809574	0.023903	0.836103	5.521446	0.842450	-3.432770	-3.443883	
-0.003756	100.371663	-0.003146	0.174275	1.805341	2.476778	1.897780	-2.005443	-0.513304	-1.891328	-0.220395	3.288678	0.834653	0.861661	-4.165506	0.	0.	0.	-1.513103	-0.004399	-0.718014	-0.372246	-2.670480	-0.006513	2.154060	1.163468	-3.010030	0.	0.	0.	-0.191577	3.015934	-0.026077	-0.021584	-4.067859	-5.670352	-0.379603	4.001359	5.472300	1.500841	-5.277136	-8.466100	-2.248279	-0.715849	-1.447607	3.870181	2.943012	-31.715191	-1.117184	4.719780	5.504042	-0.847016	-3.733739	10.219471	-2.183034	0.242945	3.954866	0.920149	-3.087346	13.805708	0.016533	0.857893	5.518614	0.855791	-3.434577	-3.446101	
-0.003693	100.371711	-0.003841	0.174275	1.805341	2.476778	1.897780	-2.005443	-0.513304	-1.890971	-0.220265	3.295943	0.834398	0.861446	-4.172769	0.	0.	0.	-1.513103	-0.004399	-0.718014	-0.371717	-2.671753	0.000346	2.153671	1.164482	-3.016910	0.	0.	0.	-0.195332	3.043887	-0.028208	-0.018679	-4.105959	-5.660220	-0.376436	4.004964	5.469130	1.498427	-5.270402	-8.471139	-2.248279	-0.715849	-1.447607	3.870181	2.943012	-31.715191	-1.112425	4.725095	5.502374	-0.852609	-3.726904	10.221023	-2.186028	0.242445	3.964028	0.920936	-3.086134	13.801126	0.009381	0.879151	5.516413	0.872006	-3.426376	-3.445957	
-0.003632	100.371769	-0.004514	0.174275	1.805341	2.476778	1.897780	-2.005443	-0.513304	-1.889916	-0.219845	3.317958	0.833652	0.860768	-4.194774	0.	0.	0.	-1.513103	-0.004399	-0.718014	-0.371205	-2.672986	0.007001	2.153294	1.165466	-3.023584	0.	0.	0.	-0.199054	3.071574	-0.030295	-0.018820	-4.172915	-5.629818	-0.366066	4.023549	5.455651	1.490773	-5.249048	-8.487092	-2.248279	-0.715849	-1.447607	3.870181	2.943012	-31.715191	-1.097320	4.749614	5.493229	-0.870317	-3.705457	10.228165	-2.200714	0.241557	4.013034	0.924571	-3.080945	13.779877	-0.017658	0.960518	5.509563	0.894090	-3.461823	-3.465053	
